<svg width="73" height="80" viewBox="0 0 73 80" fill="none" xmlns="http://www.w3.org/2000/svg">
<path d="M30.1314 58.2486C27.7952 60.7209 22.3492 64.4933 19.2542 59.8042" stroke="#FF6F31" stroke-width="3" stroke-linecap="round"/>
<path d="M38.2063 64.5089C38.981 64.2154 39.8469 64.6056 40.1404 65.3803C40.4338 66.155 40.0437 67.0209 39.269 67.3144L38.7376 65.9116L38.2063 64.5089ZM30.8294 58.2833L32.3164 58.0862C32.5222 59.6394 33.132 61.7694 34.1928 63.2246C34.7113 63.9358 35.2777 64.4043 35.8764 64.6295C36.4448 64.8434 37.1887 64.8943 38.2063 64.5089L38.7376 65.9116L39.269 67.3144C37.6595 67.924 36.1572 67.9404 34.8201 67.4374C33.5132 66.9458 32.5146 66.0151 31.7687 64.9919C30.3007 62.9784 29.5834 60.2991 29.3424 58.4803L30.8294 58.2833Z" fill="#FF6F31"/>
<path d="M28.6079 41.373C27.7925 45.0017 25.0539 43.3046 21.4252 42.4892C17.7965 41.6738 14.6517 42.0488 15.4672 38.4201C16.2826 34.7914 19.6638 33.4963 23.2925 34.3118C26.9212 35.1272 29.4233 37.7443 28.6079 41.373Z" fill="#FF6F31"/>
<path d="M52.3941 47.0784C51.5787 50.7071 48.8402 49.0099 45.2115 48.1945C41.5828 47.3791 38.438 47.7542 39.2534 44.1255C40.0688 40.4968 43.45 39.2017 47.0788 40.0171C50.7075 40.8325 53.2096 43.4496 52.3941 47.0784Z" fill="#FF6F31"/>
<circle cx="31.1808" cy="54.7735" r="3.5098" fill="#FF6F31"/>
<mask id="mask0_26_321" style="mask-type:alpha" maskUnits="userSpaceOnUse" x="0" y="0" width="75" height="80">
<path d="M30.5227 26.6951C37.0159 25.1157 46.8287 29.1081 50.9234 31.3017C75.7113 -7.52541 74.6146 19.4561 68.2531 42.7085C61.8916 65.9609 59.1523 79.1591 23.9419 76.7097C-1.2847 74.9548 0.323854 46.5839 7.92841 23.4047C10.122 14.7033 16.0009 -1.3394 21.9676 4.10078C29.4259 10.901 22.4063 28.6694 30.5227 26.6951Z" stroke="black" stroke-width="5"/>
</mask>
<g mask="url(#mask0_26_321)">
<rect x="-8.27449" y="-23.4962" width="74.6367" height="82.0434" transform="rotate(25.1894 -8.27449 -23.4962)" fill="#FF8652"/>
</g>
</svg>
